<?xml version="1.0" standalone="no"?><!DOCTYPE svg PUBLIC "-//W3C//DTD SVG 1.1//EN" "http://www.w3.org/Graphics/SVG/1.1/DTD/svg11.dtd"><svg class="icon" height="512" viewBox="0 0 1024 1024" version="1.1" xmlns="http://www.w3.org/2000/svg"><path d="M958.709483 399.698285c-31.720446-24.25952-63.612807-48.220235-95.545076-72.266907-30.229488-22.809495-60.584843-45.364187-91.15407-68.514443 0 20.465101 0 40.972157 0 61.437258 0 11.725042-8.867972 18.58938-19.526729 19.825534-6.565533 0.76748-12.70537 1.364067-19.228947 1.619894-3.453658 0.212848-6.865361 0.340761-10.402931 0.639566-1.321088 0.170892-2.644223 0.340761-3.965312 0.468674-0.255827 0-0.597611 0.084934-1.023306 0.170892-17.22429 2.771113-33.980929 7.930623-50.309826 14.112416-8.740058 3.282766-13.428847 5.116531-22.382776 9.593496-6.907317 3.368724-13.600763 7.03523-19.996426 11.213389-3.623527 2.430352-7.333012 4.903683-10.828626 7.546883-0.597611 0.468674-1.065262 0.724501-1.321088 1.023306-0.171915 0.127913-0.427742 0.298805-0.683569 0.511653-1.490957 1.236154-2.942005 2.345418-4.432962 3.624551-5.756097 4.860704-11.384281 10.019191-16.712637 15.476483-12.151761 12.534478-19.526729 21.403472-28.266787 34.875299-8.698103 13.302981-16.244986 27.372418-22.682605 42.038442-0.213871 0.554632-0.425695 0.938372-0.511653 1.279133-0.38374 0.938372-0.853437 1.833765-1.151219 2.857071-0.725524 1.747807-1.449002 3.495614-2.13257 5.329379-1.321088 3.581572-2.686179 7.248078-3.879354 10.914584-2.642177 7.716752-5.116531 15.476483-7.291057 23.406083-4.432962 16.371876-8.484232 35.643802-9.975189 49.500391-0.127913 1.449002-0.255827 2.856048-0.341784 4.221138 0.895393-1.36509 1.876744-2.772136 2.90005-4.13518 18.075681-25.667589 38.369889-50.438763 62.075801-71.15969 24.089651-21.103644 51.503001-39.010479 81.986269-49.200562 15.775288-5.201465 32.487925-8.100492 49.158606-8.740058 16.117073-0.639566 31.380708 1.534959 47.197952 4.39203 8.442276 1.534959 14.751982 10.871605 14.580067 19.101033-0.553609 22.638603-1.023306 45.235251-1.534959 67.831898C833.830311 492.387313 896.247896 446.043822 958.709483 399.698285zM638.688889 492.686119l0 218.333634c-0.509606 35.985586-29.757744 65.061808-65.913199 65.061808L308.737108 776.081561l-66.085114 0-65.956178 0c-36.453237 0-66.084091-29.587875-66.084091-66.041112L110.611725 313.959551c0-36.453237 29.631878-66.042135 66.084091-66.042135l65.956178 0 66.085114 0 264.038582 0c36.155455 0 65.403592 29.03529 65.913199 65.061808l0 28.992311c5.756097-2.430352 11.426237-4.689812 18.845207-7.503904 8.698103-3.282766 17.60803-6.011924 26.476001-8.91095l0-46.728254c-0.639566-42.209334-34.874275-76.231195-77.211523-76.231195L297.438785 202.597231l-77.468372 0-77.254501 0c-42.720987 0-77.425394 34.662451-77.425394 77.340459l0 464.126666c0 42.676985 34.70543 77.339436 77.425394 77.339436l77.254501 0 77.468372 0 309.35979 0c42.337247 0 76.571956-34.06484 77.211523-76.232219l0-265.445628c-11.93789 2.25946-23.747867 5.116531-35.21606 8.867972C645.340379 489.744113 642.100592 491.406986 638.688889 492.686119zM414.982898 392.749012l-40.247656 59.603493-40.204677-59.603493-79.045287 0 79.045287 119.250988L255.485277 631.249965l79.045287 0 40.204677-59.645448 40.247656 59.645448 79.003332 0-15.220656-22.980387-31.550577-45.916772c0.127913-0.341784-32.232099-50.352805-32.232099-50.352805l79.003332-119.250988L414.982898 392.749012z" /></svg>