<svg id="svg" xmlns="http://www.w3.org/2000/svg" width="400" height="400" viewBox="0, 0, 400,400">
  <g id="svgg">
    <path id="path0"
          d="M170.523 140.229 C 167.107 141.845,166.485 143.076,164.680 151.793 C 164.020 154.979,163.404 157.889,163.311 158.259 L 163.142 158.933 143.184 158.933 C 129.534 158.933,122.780 159.027,121.813 159.231 C 118.503 159.927,115.726 161.976,114.222 164.832 L 113.467 166.267 113.467 209.733 L 113.467 253.200 114.191 254.676 C 115.155 256.637,117.071 258.504,119.192 259.548 L 120.922 260.400 200.000 260.400 L 279.078 260.400 280.808 259.548 C 282.929 258.504,284.845 256.637,285.809 254.676 L 286.533 253.200 286.533 209.733 L 286.533 166.267 285.774 164.824 C 284.311 162.045,281.417 159.911,278.187 159.231 C 277.219 159.027,270.475 158.933,256.792 158.933 L 236.810 158.933 236.670 158.333 C 236.593 158.003,235.988 155.093,235.325 151.867 C 233.521 143.079,232.903 141.850,229.477 140.229 L 227.867 139.467 200.000 139.467 L 172.133 139.467 170.523 140.229 M139.710 167.885 C 143.091 168.888,145.311 172.493,144.536 175.721 C 143.172 181.408,135.055 182.918,131.568 178.133 C 127.676 172.795,133.130 165.930,139.710 167.885 M203.935 173.336 C 240.222 177.159,252.092 220.686,222.133 240.067 C 196.916 256.380,162.202 240.096,160.877 211.333 C 159.857 189.172,180.589 170.876,203.935 173.336 M195.867 185.077 C 176.033 188.166,166.644 209.703,178.560 224.773 C 190.539 239.922,215.760 237.506,224.238 220.397 C 233.135 202.441,216.593 181.848,195.867 185.077 "
          stroke="none" fill="#007bff" fill-rule="evenodd"></path>
    <path id="path1" d="" stroke="none" fill="#383434" fill-rule="evenodd"></path>
    <path id="path2" d="" stroke="none" fill="#383434" fill-rule="evenodd"></path>
    <path id="path3" d="" stroke="none" fill="#383434" fill-rule="evenodd"></path>
    <path id="path4" d="" stroke="none" fill="#383434" fill-rule="evenodd"></path>
  </g>
</svg>
