<?xml version="1.0" standalone="no"?><!DOCTYPE svg PUBLIC "-//W3C//DTD SVG 1.1//EN" "http://www.w3.org/Graphics/SVG/1.1/DTD/svg11.dtd"><svg class="icon" height="512" viewBox="0 0 1024 1024" version="1.1" xmlns="http://www.w3.org/2000/svg"><path d="M958.334953 565.973262c-1.414209-13.514805-5.364171-32.266891-9.730619-48.276517-2.12029-7.735172-4.491291-15.260565-7.067976-22.828938-1.206478-3.575432-2.494821-7.151887-3.784186-10.602476-0.665149-1.829671-1.414209-3.5345-2.078335-5.239328-0.291642-0.998747-0.748037-1.871627-1.12359-2.786463-0.124843-0.332575-0.332575-0.665149-0.540306-1.24741-6.237051-14.304797-13.596669-27.985378-22.078855-40.999786-8.524141-13.139252-15.717983-21.788236-27.609825-34.012651-5.15644-5.322216-10.644431-10.31288-16.300244-15.09479-1.414209-1.24741-2.828418-2.328022-4.28356-3.533476-0.249687-0.207731-0.49835-0.332575-0.665149-0.499373-0.248663-0.248663-0.706081-0.540306-1.289366-0.997724-3.409656-2.578732-7.067976-4.948709-10.561543-7.318686-6.277984-4.115738-12.806677-7.692193-19.501146-10.936073-8.773827-4.408403-13.307074-6.154163-21.872147-9.356089-15.883759-6.071276-32.224935-11.102872-49.065486-13.805424-0.415462-0.082888-0.707105-0.12382-0.957815-0.12382-1.288343-0.166799-2.619664-0.332575-3.908006-0.457418-3.409656-0.332575-6.777357-0.415462-10.146081-0.623193-6.361895-0.291642-12.307304-0.831948-18.711154-1.62194-10.394744-1.206478-19.043728-7.858992-19.043728-19.293415 0-20.00052 0-39.960107 0-59.960627-29.814026 22.578228-59.419298 44.576241-88.942705 66.821895-31.103392 23.452131-62.20576 46.862307-93.142353 70.52217 60.916395 45.157479 121.79288 90.356914 182.751231 135.514393-0.540306-22.037922-0.998747-44.076868-1.497097-66.11479-0.166799-8.025791 5.988388-17.131169 14.219863-18.628266 15.426341-2.827395 30.271444-4.948709 46.030359-4.324492 16.258289 0.623193 32.558533 3.492544 47.901986 8.565073 29.773094 9.93835 56.468083 27.360138 79.96217 47.985898 23.160489 20.167319 42.912345 44.325531 60.58382 69.39858 0.956791 1.289366 1.954515 2.661619 2.827395 4.033873C958.625572 568.758702 958.500729 567.386448 958.334953 565.973262z"  /><path d="M624.519168 706.102766c-0.49835 35.095309-29.024034 63.453171-64.285119 63.453171L302.678112 769.555937l-64.408939 0-64.326051 0c-35.593659 0-64.450894-28.857235-64.450894-64.408939L109.492228 318.854025c0-35.551704 28.857235-64.408939 64.450894-64.408939l64.326051 0 64.408939 0 257.554914 0c20.292162 0 37.589107 9.979282 49.399083 24.699542 15.384385-11.643178 30.977525-23.410176 46.529733-35.053354-13.472849-20.333094-36.467563-33.846876-62.746066-33.846876L291.660174 210.244398l-75.511811 0-75.346035 0c-41.664935 0-75.511811 33.805944-75.511811 75.428923l0 452.655404c0 41.624003 33.846876 75.428923 75.511811 75.428923l75.346035 0 75.511811 0 301.756625 0c41.290405 0 74.679863-33.223682 75.30408-74.347289L668.720879 557.282323c-14.762215-10.936073-29.440519-21.871123-44.200688-32.80822L624.520191 706.102766z"  /><path d="M406.299121 395.697157l-39.210024 58.130955-39.253002-58.130955-77.050864 0 77.050864 116.302843L250.784208 628.302843l77.050864 0 39.253002-58.171887 39.210024 58.171887 77.092819 0-77.092819-116.302843c0 0 77.050864-115.721605 77.757968-116.302843L406.299121 395.697157z"  /></svg>